<?xml version="1.0" encoding="UTF-8" standalone="no"?>
<!-- Created with Inkscape (http://www.inkscape.org/) -->

<svg
   xmlns:dc="http://purl.org/dc/elements/1.1/"
   xmlns:cc="http://creativecommons.org/ns#"
   xmlns:rdf="http://www.w3.org/1999/02/22-rdf-syntax-ns#"
   xmlns:svg="http://www.w3.org/2000/svg"
   xmlns="http://www.w3.org/2000/svg"
   xmlns:sodipodi="http://sodipodi.sourceforge.net/DTD/sodipodi-0.dtd"
   xmlns:inkscape="http://www.inkscape.org/namespaces/inkscape"
   version="1.0"
   width="300"
   height="299.99985"
   id="svg2"
   inkscape:version="0.47 r22583"
   sodipodi:docname="Logotip_NMK.svg">
  <metadata
     id="metadata10">
    <rdf:RDF>
      <cc:Work
         rdf:about="">
        <dc:format>image/svg+xml</dc:format>
        <dc:type
           rdf:resource="http://purl.org/dc/dcmitype/StillImage" />
        <dc:title></dc:title>
      </cc:Work>
    </rdf:RDF>
  </metadata>
  <defs
     id="defs8" />
  <sodipodi:namedview
     pagecolor="#ffffff"
     bordercolor="#666666"
     borderopacity="1"
     objecttolerance="10"
     gridtolerance="10"
     guidetolerance="10"
     inkscape:pageopacity="0"
     inkscape:pageshadow="2"
     inkscape:window-width="1024"
     inkscape:window-height="749"
     id="namedview6"
     showgrid="false"
     inkscape:zoom="1.6500008"
     inkscape:cx="150"
     inkscape:cy="149.99992"
     inkscape:window-x="-4"
     inkscape:window-y="-4"
     inkscape:window-maximized="1"
     inkscape:current-layer="svg2" />
  <path
     d="m 92.155391,298.24045 -1.874,-1.7595 -0.032,1.5877 -0.032,1.5876 -0.8493,0 -0.8493,0 0,-3.5504 c 0,-1.9528 0.03,-3.5505 0.066,-3.5505 0.036,0 0.8932,0.7847 1.9037,1.7437 l 1.8374,1.7436 0.032,-1.5718 0.032,-1.5719 0.8492,0 0.8493,0 0,3.5504 c 0,1.9528 -0.013,3.5505 -0.03,3.5505 -0.016,0 -0.873,-0.7917 -1.9037,-1.7594 z m 95.472199,-0.035 -1.8753,-1.7818 -0.032,1.6164 -0.032,1.6164 -0.8493,0 -0.8493,0 0,-3.5504 c 0,-1.9528 0.039,-3.5505 0.087,-3.5505 0.048,0 0.9299,0.7918 1.9606,1.7595 l 1.874,1.7594 0.031,-1.5876 0.032,-1.5877 0.8493,0 0.8493,0 0,3.5504 c 0,1.9528 -0.038,3.5476 -0.085,3.5441 -0.047,0 -0.9292,-0.8082 -1.9606,-1.7882 z m -80.7724,1.4081 c -0.6001,-0.1985 -1.142,-0.5352 -1.5457,-0.9605 l -0.3154,-0.3323 0.633,-0.6032 0.633,-0.6033 0.2635,0.2865 c 0.4219,0.4588 0.9624,0.6825 1.6339,0.6765 0.4149,0 0.6815,-0.069 0.8295,-0.2044 0.4881,-0.4452 0.2222,-0.6758 -0.9718,-0.843 -1.3365,-0.1871 -1.7385,-0.3235 -2.1942,-0.7443 -0.376,-0.3472 -0.4147,-0.4421 -0.4576,-1.1205 -0.055,-0.8657 0.12,-1.3047 0.6876,-1.7276 0.4506,-0.3358 0.6491,-0.4163 1.4436,-0.5854 l 0.6195,-0.1318 -0.7047,-0.215 -0.7047,-0.215 0,-0.5545 c 0,-0.641 0.082,-0.671 0.9092,-0.3324 0.497,0.2033 0.5269,0.2031 1.0555,-0.01 0.8317,-0.3298 0.8948,-0.3055 0.8545,0.3283 l -0.035,0.544 -0.6736,0.2402 -0.6736,0.2403 0.6168,0.082 c 0.3392,0.045 0.8213,0.1748 1.0714,0.2879 0.4694,0.2122 1.0797,0.7216 1.0797,0.9012 0,0.056 -0.2621,0.3249 -0.5826,0.5971 -0.4791,0.4071 -0.6153,0.4715 -0.7671,0.3627 -0.8923,-0.6394 -1.866,-0.7882 -2.2994,-0.3515 -0.388,0.391 -0.079,0.574 1.2651,0.7487 1.2566,0.1634 1.8899,0.4356 2.1849,0.9392 0.6416,1.0948 0.1377,2.5025 -1.1144,3.1133 -0.6449,0.3146 -2.0583,0.409 -2.7412,0.183 z m -9.823799,-1.7037 c 2.4141,-4.625 2.8412,-5.4092 2.9294,-5.3789 0.074,0.025 3.673199,6.9767 3.674799,7.0969 2e-4,0.016 -0.4512,0.029 -1.0031,0.029 l -1.0035,0 -0.2662,-0.5726 -0.2661,-0.5727 -1.211399,0 -1.2114,0 -0.2661,0.5727 -0.2662,0.5726 -1.011,0 -1.0109,0 0.9117,-1.7466 z m 3.303799,-0.9735 c 0,-0.047 -0.099,-0.2636 -0.2135,-0.4809 l -0.208699,-0.3949 -0.2435,0.4808 -0.2434,0.4809 0.4569,0 c 0.251299,0 0.454799,-0.039 0.452199,-0.086 z m 12.4122,2.6075 c 0.092,-0.2736 3.681,-7.0983 3.7339,-7.1005 0.067,0 3.5581,6.8108 3.6147,7.0547 0.029,0.1254 -0.166,0.1584 -0.9358,0.1584 l -0.9725,0 -0.288,-0.5726 -0.2879,-0.5727 -1.1987,0 -1.1988,0 -0.2484,0.57 -0.2485,0.5699 -1.004,0 c -0.6089,0 -0.989,-0.042 -0.966,-0.1099 z m 3.9475,-3.0025 -0.2435,-0.4808 -0.2087,0.3949 c -0.2878,0.5447 -0.2785,0.5668 0.2387,0.5668 l 0.4569,0 -0.2434,-0.4809 z m 9.3313,-0.4353 c 0,-1.9528 0.043,-3.5505 0.095,-3.5505 0.052,0 0.7254,0.6741 1.4955,1.4979 l 1.4001,1.4979 1.5163,-1.525 1.5164,-1.5249 0,3.5775 0,3.5775 -0.8524,0 -0.8524,0 0,-1.6127 0,-1.6126 -0.5797,0.6391 c -0.3188,0.3516 -0.6214,0.6392 -0.6723,0.6392 -0.051,0 -0.3773,-0.2964 -0.7251,-0.6586 l -0.6324,-0.6585 0,1.632 0,1.6321 -0.8524,0 -0.8524,0 0,-3.5504 z m 8.0695,3.5021 c 0,-0.1009 3.5652,-6.8878 3.6925,-7.0292 0.1051,-0.1168 0.5134,0.5973 1.9144,3.3486 0.9794,1.9234 1.7808,3.5493 1.7808,3.613 0,0.069 -0.3839,0.1159 -0.9467,0.1159 l -0.9466,0 -0.2662,-0.5726 -0.2662,-0.5727 -1.2276,0 -1.2276,0 -0.2445,0.5727 -0.2445,0.5726 -1.0089,0 c -0.5549,0 -1.0089,-0.022 -1.0089,-0.048 z m 3.9665,-3.0668 -0.2435,-0.4808 -0.2087,0.3949 c -0.2878,0.5447 -0.2785,0.5668 0.2387,0.5668 l 0.4569,0 -0.2434,-0.4809 z m 5.5806,-0.2635 0,-3.3787 0.8524,0 0.8524,0 0,2.5197 0,2.5197 1.7049,0 1.7048,0 0,0.8589 0,0.859 -2.5572,0 -2.5573,0 0,-3.3786 z m 6.7057,3.3439 c 0,-0.078 3.6532,-7.0137 3.741,-7.1023 0.089,-0.09 3.6466,6.755 3.6466,7.0166 0,0.074 -0.3607,0.1204 -0.9466,0.1204 l -0.9467,0 -0.2661,-0.5726 -0.2662,-0.5727 -1.2114,0 -1.2113,0 -0.2662,0.5727 -0.2662,0.5726 -1.0034,0 c -0.5519,0 -1.0035,-0.016 -1.0035,-0.035 z m 4.0084,-3.0576 c -0.098,-0.252 -0.2125,-0.4581 -0.2539,-0.4581 -0.068,0 -0.4585,0.7346 -0.4585,0.8628 0,0.029 0.2005,0.053 0.4455,0.053 l 0.4455,0 -0.1786,-0.4581 z m 9.403,-0.2863 0,-3.3787 0.8524,0 0.8524,0 0,1.2598 c 0,1.2564 8e-4,1.2599 0.2751,1.2599 0.2141,0 0.4957,-0.2795 1.2695,-1.2599 l 0.9944,-1.2598 1.0605,0 c 0.5832,0 1.0593,0.039 1.0579,0.086 0,0.047 -0.3885,0.5497 -0.8603,1.1167 -0.4718,0.5669 -1.0064,1.2169 -1.188,1.4444 l -0.3302,0.4137 1.1905,1.7593 c 0.6548,0.9676 1.1905,1.7993 1.1905,1.8483 0,0.049 -0.4731,0.086 -1.0513,0.082 l -1.0513,-0.01 -0.8369,-1.3104 c -0.8311,-1.3013 -0.8398,-1.3103 -1.2786,-1.3103 l -0.4418,0 0,1.3171 0,1.3171 -0.8524,0 -0.8524,0 0,-3.3786 z m 8.4105,0 0,-3.3787 0.8524,0 0.8525,0 0,2.5197 0,2.5197 1.7616,0 1.7617,0 0,0.8589 0,0.859 -2.6141,0 -2.6141,0 0,-3.3786 z m 7.3877,0 0,-3.3787 0.9092,0 0.9093,0 0,3.3787 0,3.3786 -0.9093,0 -0.9092,0 0,-3.3786 z m 12.8431,0 0,-3.3787 0.8524,0 0.8524,0 0,3.3787 0,3.3786 -0.8524,0 -0.8524,0 0,-3.3786 z m 4.3189,0 0,-3.3787 0.9092,0 0.9093,0 0,1.2598 c 0,1.2431 0,1.2599 0.2649,1.2599 0.201,0 0.5044,-0.3035 1.2592,-1.2599 l 0.9944,-1.2598 1.0707,0 c 0.5889,0 1.0707,0.032 1.0707,0.071 0,0.039 -0.4731,0.6448 -1.0513,1.3459 -0.5783,0.7011 -1.1192,1.3621 -1.2022,1.4688 -0.132,0.1698 -0.01,0.403 1.0018,1.8707 0.6339,0.9222 1.1804,1.7496 1.2143,1.8387 0.051,0.1327 -0.1316,0.1621 -1.0019,0.1621 l -1.0636,0 -0.8423,-1.3171 c -0.8336,-1.3035 -0.8468,-1.3171 -1.2785,-1.3171 l -0.4362,0 0,1.3171 0,1.3171 -0.9093,0 -0.9092,0 0,-3.3786 z m 7.9559,3.2666 c 0,-0.1978 3.6235,-7.0469 3.7172,-7.026 0.072,0.016 3.4146,6.4453 3.6369,6.9948 0.044,0.1082 -0.1902,0.1432 -0.9578,0.1432 l -1.0156,0 -0.2662,-0.5726 -0.2661,-0.5727 -1.2168,0 -1.2168,0 -0.2445,0.5727 -0.2445,0.5726 -0.9629,0 c -0.5513,0 -0.9629,-0.048 -0.9629,-0.112 z m 4.0869,-2.6081 c 0,-0.047 -0.099,-0.2636 -0.2135,-0.4809 l -0.2088,-0.3949 -0.2434,0.4808 -0.2434,0.4809 0.4569,0 c 0.2513,0 0.4548,-0.039 0.4522,-0.086 z m -139.156699,-7.37 c -4.8217,-0.5122 -10.2779,-3.3062 -14.563,-7.4573 -3.5505,-3.4395 -5.4338,-6.7765 -6.3236,-11.205 -0.2342,-1.1655 -0.2631,-1.6249 -0.259,-4.1178 0.01,-3.1295 0.1478,-4.2868 0.9168,-7.4395 1.3977,-5.7308 4.0334,-11.7842 10.6984,-24.5718 2.9826,-5.7224 5.9355,-11.6695 7.279,-14.6599 3.8386,-8.5443 5.888,-15.4282 6.5643,-22.0494 0.2605,-2.5502 0.183,-7.2618 -0.1553,-9.4465 -0.6083,-3.9274 -1.6157,-7.1634 -3.2803,-10.5368 -3.9052,-7.914 -10.6924,-14.5532 -21.6405,-21.1686 -3.5152,-2.124 -7.4455,-4.2157 -16.4693,-8.765 -11.6758,-5.8863 -14.3492,-7.3546 -18.6964,-10.2682 -8.7004998,-5.8313 -12.88579978,-11.6504 -13.59249978,-18.8981 -0.4308,-4.4191 0.8019,-10.1336 3.19859998,-14.8278 3.0956,-6.062903 7.9493998,-9.696603 14.8264998,-11.099703 2.7103,-0.553 3.7692,-0.6368 8.0127,-0.6345 6.2385,0 9.7627,0.4154 22.9585,2.684 10.2349,1.7596 14.8002,2.4035 20.4581,2.8856 2.7548,0.2347 10.8524,0.1989 13.0136,-0.058 7.6738,-0.9105 13.2444,-2.8379 18.469099,-6.3899 8.0713,-5.4874 13.4786,-13.9597 16.9877,-26.6164 1.588,-5.7273 2.6034,-11.1302 4.3802,-23.3069 1.9486,-13.3533 2.9463,-18.3624 4.7152,-23.672 1.8083,-5.428 3.8963,-9.0967002 6.8649,-12.0621002 3.275,-3.2714 6.9971,-5.00420001 12.3438,-5.74660001 1.3514,-0.1877 5.9364,-0.1839 7.3876,0.01 10.8615,1.42160001 16.971,8.11960001 20.563,22.54340021 1.0447,4.1949 1.8292,8.5585 3.0743,17.0987 2.1828,14.972 3.2686,20.6234 5.1893,27.0093 4.0335,13.4111 10.7148,22.2512 20.4747,27.0903 4.4169,2.19 8.5503,3.3464 14.4597,4.0455 2.1642,0.256 10.2662,0.2922 13.0136,0.058 5.6579,-0.4821 10.2232,-1.126 20.458,-2.8856 13.2068,-2.2705 16.7305,-2.6823 22.9585,-2.6832 4.2246,-7e-4 5.336,0.086 7.9597,0.6237 7.8726,1.6121 13.0496,6.044 16.0582,13.747303 2.3444,6.0027 2.7236,11.7312 1.1002,16.6214 -1.7737,5.343 -5.9435,10.03 -13.1842,14.8196 -3.9213,2.5939 -7.0914,4.3279 -17.2189,9.4187 -4.3132,2.1681 -8.8651,4.4845 -10.1153,5.1476 -7.7238,4.0964 -13.2038,7.6389 -17.9577,11.6087 -1.6867,1.4085 -5.307,5.1089 -6.6175,6.7641 -7.0419,8.8932 -9.4427,19.1798 -7.2395,31.0187 0.9048,4.8617 2.7608,10.579 5.3912,16.6069 1.8637,4.2711 3.3347,7.2557 8.0156,16.2633 5.5152,10.6132 7.8539,15.6967 9.4733,20.5918 3.6502,11.0335 2.4924,19.0681 -3.6812,25.5456 -3.8382,4.0271 -8.916,7.0533 -13.4881,8.0385 -6.7867,1.4624 -13.5838,-0.7327 -21.5397,-6.9563 -3.7799,-2.9569 -6.6242,-5.6604 -15.8901,-15.1036 -7.6941,-7.8414 -10.0545,-10.1555 -13.1298,-12.8729 -10.0411,-8.8722 -18.7299,-13.3784 -27.9608,-14.5012 -2.0052,-0.2439 -5.6962,-0.2463 -7.6782,-0.01 -9.7258,1.1842 -18.6573,5.9735 -29.4285,15.7805 -2.6992,2.4576 -6.2144,5.9448 -12.8562,12.7537 -7.368499,7.5539 -10.484699,10.5243 -14.078099,13.4193 -7.4652,6.0141 -13.8697,8.4893 -20.2206,7.8147 z m 93.130799,-78.2145 c 9.1701,-0.7159 16.6397,-7.2931 18.5331,-16.319 0.3386,-1.6144 0.4453,-3.561 0.5443,-9.9352 0.051,-3.2597 0.123,-5.9579 0.1608,-5.996 0.038,-0.038 2.9233,-0.014 6.4123,0.053 4.2715,0.082 6.7334,0.085 7.537,0.01 5.0392,-0.484 9.2886,-2.5514 12.8431,-6.2485 2.1468,-2.2328 3.7034,-4.7985 4.6501,-7.6646 0.6556,-1.9849 0.9038,-3.3655 1.0282,-5.7205 0.1365,-2.5826 0.4034,-19.0923 0.399,-24.6813 0,-4.108 -0.01,-4.2056 -0.3119,-5.6341 -0.1697,-0.7996 -0.4879,-1.9592 -0.707,-2.577 -0.4478,-1.2623 -0.4361,-1.2173 -0.2935,-1.1286 0.058,0.036 0.1925,0.3354 0.2995,0.6654 0.1069,0.3299 0.205,0.6132 0.218,0.6296 0.013,0.016 2.0809,-0.4605 4.5955,-1.0595 2.5145,-0.5989 4.6451,-1.089 4.7346,-1.089 0.093,0 0.163,0.1107 0.1634,0.2577 3e-4,0.1417 0.2305,1.4087 0.5115,2.8156 0.2809,1.4069 0.5108,2.6051 0.5108,2.6628 0,0.058 -0.2503,0.1049 -0.5563,0.1049 -0.4407,0 -1.3786,0.3181 -4.5178,1.5323 -2.1789,0.8428 -4.0766,1.5678 -4.2173,1.6112 l -0.2557,0.079 0,2.696 c 0,2.1144 0.031,2.6823 0.1421,2.6323 0.078,-0.035 2.3157,-0.9332 4.9724,-1.996 2.6567,-1.0627 4.9498,-1.9972 5.0958,-2.0766 0.1461,-0.079 0.2779,-0.1273 0.293,-0.1064 0.015,0.021 0.094,0.2064 0.1755,0.4124 0.081,0.206 0.3052,0.5079 0.4974,0.6708 0.2906,0.2464 0.4314,0.287 0.8369,0.2409 0.5593,-0.063 1.2009,-0.5045 1.4552,-1.0001 0.2646,-0.5156 0.2058,-1.5558 -0.1706,-3.0163 -0.4299,-1.6688 -0.4301,-1.6915 -0.01,-1.6067 0.4798,0.097 2.1534,-0.4966 4.0923,-1.4508 0.8977,-0.4417 1.65,-0.7852 1.6719,-0.7631 0.022,0.022 0.1474,0.5772 0.2791,1.2338 0.2403,1.1987 0.5233,1.8565 0.8535,1.9842 0.5582,0.2159 1.5236,-0.1205 1.9637,-0.6842 0.3846,-0.4928 0.4167,-1.016 0.136,-2.2225 -0.4693,-2.0172 -0.6873,-3.5501 -0.8032,-5.6476 -0.1249,-2.2607 -0.1717,-2.6072 -0.4181,-3.0929 -0.5378,-1.0605 -2.3209,-1.024 -3.0014,0.061 -0.2427,0.387 -0.2476,0.6704 -0.044,2.6066 l 0.066,0.63 -0.8873,0.5149 c -1.1265,0.6539 -2.0959,0.9793 -3.3876,1.1372 -0.5626,0.069 -1.1357,0.1558 -1.2735,0.1933 -0.2903,0.079 -0.2997,0.05 -0.4764,-1.4685 -0.1972,-1.6952 -0.7431,-2.3908 -1.9365,-2.4677 -0.49,-0.032 -0.716,0.012 -1.003,0.1936 -0.4471,0.2829 -0.8219,0.8692 -0.8225,1.2866 -4e-4,0.2661 -0.063,0.3198 -0.4835,0.4147 -7.4098,1.6718 -9.3354,2.0924 -9.4474,2.0633 -0.074,-0.019 -0.5998,-0.5504 -1.168,-1.1803 -1.4688,-1.6285 -4.0917,-4.1809 -5.5339,-5.385 -4.0003,-3.3401 -7.6406,-5.2747 -10.6522,-5.661 -0.5274,-0.068 -3.6352,-0.1694 -6.9061,-0.2261 -3.271,-0.057 -5.9748,-0.1308 -6.0086,-0.1648 -0.034,-0.034 -0.011,-2.8346 0.051,-6.2236 0.069,-3.7941 0.073,-6.645903 0.01,-7.421603 -0.7467,-9.0212 -7.3172,-16.4908 -16.1771,-18.3909 -0.5626,-0.1206 -1.7389,-0.2736 -2.6141,-0.3399 -2.3021,-0.1743 -27.3919,-0.5635 -28.6413,-0.4443 -9.5864,0.9151 -17.3298,8.6209 -18.3476,18.2588 -0.066,0.6299 -0.1709,3.897003 -0.232,7.260303 -0.061,3.3632 -0.1346,6.1387 -0.1634,6.1677 -0.029,0.029 -2.9071,0 -6.396,-0.069 -7.9843,-0.1537 -9.1564,-0.055 -12.300299,1.0349 -7.4572,2.5854 -12.7635,9.2804 -13.6457,17.2168 -0.1429,1.2857 -0.6156,27.8589 -0.5165,29.0335 0.3786,4.485 1.935,8.3773 4.6713,11.6821 3.7021,4.4712 8.9222,7.1052 14.651999,7.393 0.6876,0.034 3.7471,0.1068 6.7988,0.1606 3.0518,0.054 5.5741,0.1233 5.605,0.1545 0.031,0.031 0,3.0202 -0.072,6.6423 -0.1351,6.9468 -0.1058,7.7978 0.3457,10.0575 1.5708,7.86 7.9411,14.2512 15.8498,15.9018 1.7816,0.3718 3.9477,0.4599 16.7642,0.6815 6.5949,0.1141 12.1186,0.2135 12.2748,0.221 0.1563,0.01 0.9235,-0.036 1.7049,-0.097 z m -13.6955,-12.7074 c -14.8829,-0.2849 -14.2554,-0.2601 -15.3057,-0.6042 -2.1164,-0.6934 -3.7511,-2.0851 -4.6887,-3.9919 -0.9508,-1.9337 -0.9167,-1.12 -0.6573,-15.6796 0.1252,-7.0236 0.2127,-12.786 0.1946,-12.8054 -0.018,-0.019 -5.6773,-0.136 -12.576,-0.2593 -11.6662,-0.2085 -12.6065,-0.24 -13.4522,-0.4503 -1.5058,-0.3744 -2.4659,-0.9324 -3.639899,-2.1155 -1.1911,-1.2002 -1.7329,-2.1576 -2.1178,-3.7424 l -0.2406,-0.9907 0.2402,-13.6692 c 0.2262,-12.8746 0.2535,-13.7224 0.4695,-14.5854 0.3725,-1.4883 0.9393,-2.4903 2.0479,-3.6206 0.816299,-0.8322 1.136399,-1.0691 2.047299,-1.515 1.9409,-0.9502 1.1624,-0.9169 15.3973,-0.6586 6.8744,0.1246 12.5136,0.2119 12.5315,0.1939 0.018,-0.018 0.1329,-5.6457 0.2557,-12.506 0.1227,-6.8604 0.272,-12.731003 0.3317,-13.046003 0.3099,-1.6355 0.9807,-2.8861 2.2177,-4.1346 0.7563,-0.7632 1.1107,-1.0215 1.999,-1.457 1.942,-0.9521 1.0368,-0.9157 16.1735,-0.6501 14.9313,0.262 14.4245,0.2278 16.1616,1.0917 2.2558,1.1218 3.7644,3.1514 4.2112,5.6654 0.1295,0.7286 0.1193,2.743103 -0.067,13.277503 -0.1209,6.8302 -0.2006,12.4379 -0.177,12.4617 0.024,0.024 5.636,0.1427 12.4722,0.2643 13.7919,0.2454 13.3018,0.2114 15.0007,1.0393 1.0481,0.5107 2.552,1.5752 2.408,1.7044 -0.051,0.045 -1.831,0.5091 -3.9564,1.0304 -8.067,1.9787 -16.6516,4.3611 -21.481,5.9615 -1.3752,0.4557 -2.5658,0.8342 -2.6458,0.841 -0.08,0.01 -0.2665,-0.2851 -0.4145,-0.6486 -0.4015,-0.9862 -0.9679,-1.6129 -1.8558,-2.0534 -0.6859,-0.3402 -0.8585,-0.3774 -1.7303,-0.3725 -1.2158,0.01 -2.0277,0.3076 -2.8554,1.0575 -0.7949,0.7203 -1.2384,1.6589 -1.2385,2.6215 -1e-4,0.5994 0.3464,3.4604 0.5124,4.2306 0.046,0.2139 -0.049,0.2715 -0.8269,0.5023 -0.4835,0.1434 -1.416,0.4678 -2.0724,0.7208 -1.6315,0.6289 -7.6144,3.3677 -7.8833,3.6087 -0.3246,0.2909 -0.5273,0.8633 -0.5273,1.4894 l 0,0.5573 -2.0742,0.691 c -1.1408,0.38 -3.4807,1.22 -5.1997,1.8665 -5.8463,2.199 -9.4014,3.2908 -16.4059,5.0385 -2.5039,0.6247 -4.1576,1.0926 -4.2905,1.2138 -0.3034,0.2767 -0.2746,0.8005 0.063,1.1404 0.1534,0.1547 0.3458,0.2811 0.4275,0.2811 0.2449,0 7.4654,-1.761 10.0908,-2.461 3.2372,-0.8632 6.1024,-1.6981 9.8312,-2.8648 3.1447,-0.9838 6.4439,-1.9538 7.823,-2.2999 l 0.7762,-0.1948 0.5138,0.5919 c 0.9769,1.1253 1.5628,1.2011 3.072,0.3973 0.5495,-0.2926 1.235,-0.652 1.5233,-0.7986 0.964,-0.49 2.5725,-0.9605 4.0794,-1.1932 0.8211,-0.1269 1.7514,-0.2865 2.0673,-0.3548 0.4369,-0.094 0.5946,-0.091 0.6589,0.014 0.096,0.1561 0.1492,0.6122 0.4504,3.8385 0.2548,2.7293 0.4512,3.3923 1.2434,4.196 0.5768,0.5852 1.0863,0.7844 2.0088,0.7854 0.819,9e-4 1.3009,-0.1633 6.1166,-2.084 7.6555,-3.0535 12.6565,-5.1025 24.5615,-10.0636 0.8744,-0.3644 1.601,-0.6515 1.6145,-0.6378 0.031,0.031 -0.1661,11.2875 -0.2394,13.7023 -0.06,1.9649 -0.2207,2.8072 -0.7538,3.9443 -1.1626,2.4795 -3.5691,4.2004 -6.246,4.4668 -0.4064,0.04 -6.261,-0.029 -13.0104,-0.154 -6.7493,-0.1251 -12.291,-0.2079 -12.3148,-0.1839 -0.024,0.024 -0.1392,5.7032 -0.2565,12.6207 -0.2377,14.0155 -0.2241,13.8074 -1.0137,15.4405 -1.0305,2.1312 -2.8495,3.6573 -5.0578,4.2433 -1.038,0.2755 -2.5226,0.2812 -14.3206,0.055 z m 24.8989,-51.2328 c -0.034,-0.2649 -0.1656,-1.3577 -0.2934,-2.4286 -0.1279,-1.0708 -0.359,-2.6836 -0.5136,-3.5839 -0.1545,-0.9003 -0.281,-1.7275 -0.281,-1.8383 0,-0.1408 0.1966,-0.2741 0.6535,-0.4431 0.3594,-0.1329 2.0522,-0.7631 3.7617,-1.4003 7.0727,-2.6363 16.1842,-5.5596 23.1829,-7.4381 l 1.2869,-0.3454 0.1636,0.3945 c 0.4404,1.0622 0.5019,1.6463 0.5019,4.7648 l 0,3.0612 -4.7451,1.5595 c -9.9696,3.2765 -17.6995,5.9395 -22.725,7.8291 l -0.9315,0.3502 -0.061,-0.4816 z m -46.664,134.765 -6.9899,-6.5863 -0.029,5.9629 -0.029,5.963 -2.9541,0 -2.954,0 0,-12.7901 0,-12.7901 0.2557,0.2304 c 0.1407,0.1268 3.3372,3.1265 7.1035,6.6661 l 6.8478,6.4357 0,-5.959 0,-5.9589 2.955,0 2.9551,0 0,12.7128 c 0,6.9921 -0.038,12.71 -0.085,12.7064 -0.047,0 -3.2306,-2.9704 -7.075,-6.5929 z m 11.5969,-7.4019 0,-12.7415 5.3864,5.4597 5.3863,5.4597 5.3501,-5.4269 5.3501,-5.4269 0,12.7087 0,12.7087 -2.955,0 -2.9551,0 0,-5.9105 0,-5.9105 -2.4013,2.4775 -2.4014,2.4776 -2.4233,-2.494 -2.4233,-2.494 -0.01,5.9269 -0.01,5.927 -2.9551,0 -2.955,0 0,-12.7415 z m 25.9095,0.6585 0,-12.0829 3.0119,0 3.0119,0 0,4.4703 0,4.4703 1.3282,-0.032 1.3282,-0.032 3.4738,-4.43 3.4737,-4.43 3.779,-0.01 c 2.0785,0 3.7791,0.033 3.7791,0.083 0,0.05 -1.9946,2.5034 -4.4324,5.4514 -2.6187,3.1667 -4.4001,5.414 -4.3535,5.4919 0.043,0.073 1.9176,2.8378 4.1647,6.1448 2.2472,3.3071 4.2343,6.2319 4.4158,6.4996 l 0.33,0.4868 -3.741,0 -3.741,0 -3.0554,-4.6956 -3.0554,-4.6955 -1.8469,-2e-4 -1.8469,-2e-4 0,4.6957 0,4.6958 -3.0119,0 -3.0119,0 0,-12.083 z M 43.176791,231.28435 c -16.211,-20.4615 -26.2115,-44.6603 -29.0388,-70.267 -0.2295,-2.0784 -0.5165,-5.2772 -0.517,-5.7638 l -5e-4,-0.3809 1.4441,0.7818 c 0.7943,0.4299 5.1276,2.6371 9.6296,4.9048 l 8.1854,4.1231 0.4141,2.2411 c 2.4115,13.0507 7.0263,25.6123 13.7038,37.3022 1.7409,3.0477 4.2486,6.9868 6.098,9.5787 0.355,0.4976 0.6455,0.9821 0.6455,1.0768 0,0.3752 -7.7537,15.7549 -8.9836,17.8192 l -0.1969,0.3305 -1.3837,-1.7465 z m 211.414599,0.7202 c -4.2718,-8.1558 -6.9174,-13.3795 -8.321,-16.4295 l -0.7936,-1.7244 1.9098,-2.8807 c 6.6763,-10.0701 11.5889,-20.5876 15.038,-32.1945 0.9117,-3.0681 2.0139,-7.5828 2.6019,-10.6572 0.2651,-1.3858 0.4985,-2.5805 0.5189,-2.6548 0.03,-0.1111 19.5037,-10.0384 19.5495,-9.9662 0.087,0.1377 -0.6111,6.6397 -1.0358,9.6432 -3.215,22.7348 -12.0925,44.265 -25.855,62.7054 -1.6915,2.2664 -3.2787,4.2847 -3.4055,4.3305 -0.054,0.02 -0.1475,-0.058 -0.2072,-0.1718 z m -7.4081,-153.481103 c -9.408,-14.1832 -22.4797,-26.7044 -37.1086,-35.5457 -5.7489,-3.4744 -12.2635,-6.708 -17.9627,-8.916 l -1.2553,-0.4863 -0.4296,-2.7067 c -0.995,-6.2695 -2.4716,-12.9003 -3.6485,-16.3838 -0.1579,-0.4673 -0.2634,-0.8735 -0.2345,-0.9026 0.074,-0.075 4.0304,1.1284 6.5958,2.0061 28.3255,9.69 52.8033,28.6506 69.4799,53.8193 1.9107,2.8836 5.3171,8.4871 5.2193,8.5857 -0.015,0.016 -0.8973,0.1108 -1.9598,0.2117 -3.6499,0.3465 -7.1851,0.8423 -13.1517,1.8445 -2.0453,0.3435 -3.8097,0.6226 -3.9211,0.6201 -0.1342,0 -0.6817,-0.727 -1.6232,-2.1463 z m -200.659399,1.4563 c -5.4202,-0.9353 -11.156,-1.7029 -14.1502,-1.8935 -0.6563,-0.042 -1.2572,-0.1099 -1.3353,-0.1514 -0.3329,-0.1771 4.8844,-8.4834 8.2416,-13.1212 16.6903,-23.057 39.8238,-40.1822 66.629099,-49.3241 2.3096,-0.7877 7.2782,-2.3077 7.34,-2.2454 0.018,0.018 -0.2463,0.9593 -0.5865,2.0922 -1.2521,4.1693 -2.4066,9.4339 -3.306,15.0754 l -0.4317,2.7079 -1.5932,0.6001 c -3.4389,1.2953 -8.314999,3.4852 -11.822099,5.3096 -9.0815,4.7241 -17.0246,10.2225 -24.8907,17.2296 -2.2266,1.9834 -8.0653,7.9344 -10.1111,10.3055 -3.7367,4.3308 -7.9895,9.9802 -10.1259,13.451 -0.1841,0.2991 -0.4114,0.537 -0.5052,0.5287 -0.094,-0.01 -1.6025,-0.2624 -3.3528,-0.5644 z"
     style="fill:#ee1c23;fill-opacity:1"
     id="path4" />
</svg>
